inDegrees=no
num_controls=7
num_derivatives=13
num_iterations=85
num_multipliers=7
num_parameters=0
num_slacks=7
num_states=26
objective=0.470009
objective_accelerations=0.064487
objective_balance=0.002133
objective_effort=0.020510
objective_height=0.373377
objective_ligament=0.009502
solver_duration=1158.824284
status=Solve_Succeeded
success=true
DataType=double
version=3
OpenSimVersion=4.5
endheader
time	/jointset/ground_pelvis/pelvis_tilt/value	/jointset/ground_pelvis/pelvis_tx/value	/jointset/ground_pelvis/pelvis_ty/value	/jointset/hip_l/hip_flexion_l/value	/jointset/hip_l/hip_adduction_l/value	/jointset/hip_l/hip_rotation_l/value	/jointset/back/lumbar_extension/value	/jointset/patellofemoral_l/patellar_flexion_l/value	/jointset/knee_l/knee_flexion_l/value	/jointset/knee_l/knee_adduction_l/value	/jointset/knee_l/knee_rotation_l/value	/jointset/ankle_l/ankle_angle_l/value	/jointset/subtalar_l/subtalar_angle_l/value	/jointset/ground_pelvis/pelvis_tilt/speed	/jointset/ground_pelvis/pelvis_tx/speed	/jointset/ground_pelvis/pelvis_ty/speed	/jointset/hip_l/hip_flexion_l/speed	/jointset/hip_l/hip_adduction_l/speed	/jointset/hip_l/hip_rotation_l/speed	/jointset/back/lumbar_extension/speed	/jointset/patellofemoral_l/patellar_flexion_l/speed	/jointset/knee_l/knee_flexion_l/speed	/jointset/knee_l/knee_adduction_l/speed	/jointset/knee_l/knee_rotation_l/speed	/jointset/ankle_l/ankle_angle_l/speed	/jointset/subtalar_l/subtalar_angle_l/speed	/forceset/tau_hip_flexion_l	/forceset/tau_hip_adduction_l	/forceset/tau_hip_rotation_l	/forceset/tau_knee_flexion_l	/forceset/tau_ankle_angle_l	/forceset/tau_subtalar_angle_l	/forceset/tau_lumbar_extension	lambda_cid13_p0	lambda_cid13_p1	lambda_cid13_p2	lambda_cid13_p3	lambda_cid13_p4	lambda_cid13_p5	lambda_cid14_p0	/jointset/ground_pelvis/pelvis_tilt/accel	/jointset/ground_pelvis/pelvis_tx/accel	/jointset/ground_pelvis/pelvis_ty/accel	/jointset/hip_l/hip_flexion_l/accel	/jointset/hip_l/hip_adduction_l/accel	/jointset/hip_l/hip_rotation_l/accel	/jointset/back/lumbar_extension/accel	/jointset/patellofemoral_l/patellar_flexion_l/accel	/jointset/knee_l/knee_flexion_l/accel	/jointset/knee_l/knee_adduction_l/accel	/jointset/knee_l/knee_rotation_l/accel	/jointset/ankle_l/ankle_angle_l/accel	/jointset/subtalar_l/subtalar_angle_l/accel	gamma_cid13_p0	gamma_cid13_p1	gamma_cid13_p2	gamma_cid13_p3	gamma_cid13_p4	gamma_cid13_p5	gamma_cid14_p0
1	-0.8297226527900723	-0.1629634657364476	0.6067455484942845	2.041073994108168	-0.3334593646502332	0.05010346763573575	-0.4361063937605829	1.08168414909685	1.081684149096701	0.001167089687812401	-0.1739698248544307	0.001696097255294064	0.08746271906494128	-0.1612319971449819	0.006180497864459246	0.03033425787061024	0.01825463802382356	-0.003866488382815622	-0.05834881907212244	-0.0006066014752482682	-0.1629540884459912	-0.162954088446031	-0.004083618413490704	0.0005235833503516029	-0.03136361033469179	-0.01260962902687968	-0.3798988374882991	0.01467476890730846	-0.006486445406434902	-0.1388236989018391	0.1286449005833776	-0.001504473712322092	0.2811258610266306	9.75299602454419	2.257638329775345	-4.423953660539137	-8.071903844516076	-547.07289897127	-51.26573643072397	-1.674649880807055	3.144544878734058	0.7572486957065416	1.833711150221135	-7.716479543756917	-0.2358124630425629	-1.274268550353973	-0.04564375185734729	-3.961494205487529	-3.961494205487543	-0.4268414082953034	-0.0001280018201046595	0.3448598830956431	-0.1215780104650765	-9.337985311303407e-09	-5.508664837159326e-08	-3.673707898041833e-10	8.74680796037026e-10	-9.557159677581705e-09	2.503146347109825e-08	-1.255293928159844e-08
1.01	-0.8311786510044806	-0.1628638387459999	0.6071403488479982	2.040871939269592	-0.3335090308772754	0.04945707956463168	-0.4361135816438776	1.079856634899095	1.079856634899023	0.00110540196508929	-0.1739632889109742	0.001399601526610896	0.08733131121552991	-0.129941228389292	0.01375371594777076	0.04861472671899249	-0.05866680610139115	-0.006058625867949369	-0.07091641880578824	-0.0008457339556728572	-0.2025324589584925	-0.2025324589585364	-0.008255448230007524	0.0007874558770812994	-0.02794313062276158	-0.01366605171391666	-0.3801301739879797	0.01484933882867894	-0.006491290902780136	-0.1380851782764333	0.1283638130204312	-0.001388935170401217	0.2812199856978647	9.690805885616335	2.20010016583668	-4.39393612969218	-8.228295867074131	-546.8761459891218	-51.23006937167694	-1.708689849581733	3.125303749186105	0.7586795293102002	1.823549217317729	-7.680158902284095	-0.2096864305821793	-1.246163607891765	-0.01526181222112395	-3.953561565172421	-3.953561565173118	-0.4125971052007235	0.04022576288688579	0.3394990396583673	-0.09678031757994909	-8.539485688615744e-09	-6.434574549180234e-08	-2.929195133024723e-09	-5.902846425341699e-09	-1.302545926191043e-08	3.624409421414943e-08	-1.540519697090931e-08
1.02	-0.8323209493562937	-0.1626882153417863	0.6077176207832291	2.039900633578676	-0.3335803728870365	0.04868538391158766	-0.4361236036151918	1.077633826377995	1.077633826378036	0.001001947276911572	-0.1739539980656604	0.001137081999929042	0.08718951795529695	-0.09849202462561883	0.02137978061764714	0.06682857417415407	-0.1355955324418267	-0.008201644926418571	-0.08341033546021141	-0.001173419079542916	-0.2420129531126333	-0.2420129531126813	-0.01243701152137364	0.001074563722507136	-0.02456836993416185	-0.01468671119123334	-0.3803615104877124	0.01502390875003248	-0.00649613639851023	-0.1373466576509895	0.1280827254574961	-0.001273396628501676	0.2813141103690347	9.62506521761809	2.141775136148973	-4.362183933258782	-8.405578299261949	-546.7639377140142	-51.19265729964169	-1.750601662487055	3.176231880330491	0.7678180130197005	1.820386871577078	-7.717935986801186	-0.225988777709698	-1.259531934505461	-0.06335428054652729	-3.941918933815434	-3.941918933815442	-0.4287881032652047	0.004519061919095462	0.335716078429882	-0.1144253685209561	-7.471590307035893e-09	-7.390161429141627e-08	-8.472112632286544e-09	-1.295569475759492e-08	-1.594915551638941e-08	4.541980255031324e-08	-1.784586572930629e-08
1.03	-0.8331481055066077	-0.1624360326304338	0.608476599288197	2.03816030973153	-0.3336728814801398	0.04778901493034894	-0.4361370061891015	1.075016855308276	1.075016855308251	0.000856756869595861	-0.1739418217590471	0.0009080864870290331	0.08703771725108912	-0.06692746485940265	0.02906898208106143	0.08494618174083501	-0.2124396080621422	-0.01028865810227885	-0.09586043686124085	-0.001487540845057411	-0.2813494218931002	-0.2813494218931155	-0.01658846736560346	0.001356652714304599	-0.0212371947614994	-0.01566377804141634	-0.3803176940833734	0.01527050593341685	-0.006491936437829969	-0.1365269407658372	0.1277475967973934	-0.00112490565222419	0.2812926496344019	9.560381822653406	2.066636983442417	-4.325105294123492	-8.618291503890839	-546.3859416301012	-51.15878821822262	-1.800648757896462	3.14832622879705	0.771300232708228	1.804302146515107	-7.663202288729549	-0.1983320902790625	-1.237314200067416	-0.01250789613747094	-3.92473093801798	-3.924730938013173	-0.4064545504106191	0.03944967615830299	0.3308447326135657	-0.08788454320280022	-6.400945989140813e-09	-8.346051137347311e-08	-1.404544944946717e-08	-2.00113524889387e-08	-1.886729459403318e-08	5.45747259639578e-08	-2.028233460065313e-08
1.04	-0.8336592644184521	-0.1621065921005065	0.6094161247582912	2.035652433340339	-0.3337859151055538	0.04676823194367104	-0.436152963334986	1.072007475533168	1.072007475533131	0.0006704258588352569	-0.1739269453908519	0.0007122080250399261	0.08687643843839245	-0.03529257693200094	0.03683134433257742	0.1029379671995251	-0.2891060412457842	-0.01230665138833558	-0.1082931365489004	-0.001684333473914495	-0.3204946941877908	-0.320494694187772	-0.0206651322261974	0.001614576040031349	-0.01794495975166712	-0.01658233288903431	-0.3802738776791889	0.01551710311677857	-0.006487736476590921	-0.1357072238806166	0.1274124681373278	-0.0009764146759655097	0.2812711888995741	9.492110660459691	1.990643773992079	-4.286195786402613	-8.851919652984114	-546.0928874627779	-51.12403688384767	-1.859101023829785	3.190297512567396	0.7824501706402225	1.795222449978976	-7.682407499466571	-0.2121847997490336	-1.256051591831489	-0.03988845321512632	-3.903679636660156	-3.903679636659921	-0.4138299065380735	-0.0003140712950721828	0.3279280458641697	-0.1027229680078904	-5.218817654520454e-09	-9.108565710647589e-08	-1.516726449258195e-08	-2.683711031627421e-08	-2.200693029106469e-08	6.452953312375581e-08	-2.278911810204823e-08
